<svg xmlns="http://www.w3.org/2000/svg" width="24" height="24" viewBox="0 0 24 24" fill="none"><path fill-rule="evenodd" clip-rule="evenodd" d="M12 24C18.6274 24 24 18.6274 24 12C24 5.37258 18.6274 -2.34843e-07 12 -5.24537e-07C5.37258 -8.1423e-07 -2.34843e-07 5.37258 -5.24537e-07 12C-8.1423e-07 18.6274 5.37258 24 12 24ZM12.0054 22.6667C6.14984 22.6667 1.33333 18.0272 1.33333 11.9793C1.33333 5.97282 6.14984 1.33333 12.0054 1.33333C17.9043 1.33333 22.6667 5.97282 22.6667 11.9793C22.6667 18.0272 17.9043 22.6667 12.0054 22.6667ZM12.0054 3.11456C7.15644 3.11456 3.17335 6.96699 3.17335 11.9793C3.17335 17.033 7.15644 20.8854 12.0054 20.8854C16.8977 20.8854 20.8375 17.033 20.8375 11.9793C20.8375 6.96699 16.8977 3.11456 12.0054 3.11456ZM11.8214 16.4531C13.5748 16.4531 14.4948 15.7489 14.4948 13.8848L16.8544 13.8848C16.8652 16.8673 14.8845 18.3586 11.8214 18.3586C8.59598 18.3586 6.57196 16.1217 6.57196 12.8492L6.57196 11.1508C6.57196 7.87832 8.59598 5.64142 11.8214 5.64143C14.8845 5.64143 16.8652 7.13269 16.8544 10.1152L14.5273 10.1152C14.5273 8.29256 13.5748 7.54693 11.8214 7.54693C9.89481 7.54693 8.89904 9.03819 8.89904 11.1508L8.89904 12.8492C8.89904 14.9618 9.89481 16.4531 11.8214 16.4531Z" fill="currentColor"/></svg>