<svg height="1.5rem" color="black" class="LogotypeText__Logo-gkjo77-0 iEhMQm" fill="none" width="242" xmlns="http://www.w3.org/2000/svg"><g fill="#000"><path d="M0 23.672h9.728c5.113 0 7.837-2.624 7.837-6.189 0-3.313-2.412-5.314-5.003-5.434v-.219c2.369-.524 4.114-2.175 4.114-4.81 0-3.357-2.535-5.74-7.56-5.74H0zm4.814-3.87v-5.949h4.035c2.313 0 3.747 1.312 3.747 3.16 0 1.684-1.167 2.788-3.858 2.788zm0-9.152V5.106H8.47c2.135 0 3.347 1.083 3.347 2.7 0 1.772-1.468 2.844-3.436 2.844zm20.531-9.37h-4.736v22.392h4.736zM36.854 24c5.18 0 8.404-3.488 8.404-8.66 0-5.204-3.224-8.681-8.404-8.681-5.181 0-8.405 3.477-8.405 8.681 0 5.172 3.224 8.66 8.405 8.66zm.022-3.608c-2.39 0-3.613-2.154-3.613-5.084s1.223-5.096 3.613-5.096c2.346 0 3.569 2.165 3.569 5.096s-1.223 5.084-3.57 5.084zM56.053 24c4.547 0 7.404-2.624 7.627-6.484h-4.47c-.278 1.793-1.478 2.8-3.101 2.8-2.213 0-3.647-1.827-3.647-5.041 0-3.171 1.445-4.986 3.647-4.986 1.734 0 2.846 1.126 3.101 2.799h4.47c-.2-3.882-3.191-6.43-7.65-6.43-5.18 0-8.382 3.532-8.382 8.682 0 5.106 3.147 8.66 8.405 8.66zm10.659-.328h4.736v-5.336l1.278-1.432 4.658 6.768h5.548l-6.66-9.524 6.337-7.27h-5.436l-5.47 6.374h-.255V1.279h-4.736zM91.945 24c4.547 0 7.404-2.624 7.627-6.484h-4.47c-.277 1.793-1.478 2.8-3.101 2.8-2.212 0-3.647-1.827-3.647-5.041 0-3.171 1.446-4.986 3.647-4.986 1.734 0 2.846 1.126 3.102 2.799h4.469c-.2-3.882-3.191-6.43-7.649-6.43-5.18 0-8.382 3.532-8.382 8.682 0 5.106 3.146 8.66 8.404 8.66zm15.395-10.037c.011-2.165 1.356-3.434 3.291-3.434 1.923 0 3.057 1.214 3.046 3.28v9.863h4.736V12.979c.011-3.937-2.346-6.32-5.904-6.32-2.59 0-4.324 1.202-5.102 3.182h-.201V1.279h-4.602v22.393h4.736zm19.669 10.027c2.524 0 4.158-1.083 4.992-2.647h.133v2.329h4.491V12.344c0-4.001-3.446-5.685-7.248-5.685-4.091 0-6.782 1.924-7.437 4.986l4.38.35c.322-1.116 1.334-1.936 3.035-1.936 1.612 0 2.534.798 2.534 2.176v.066c0 1.082-1.167 1.224-4.135 1.509-3.38.306-6.415 1.421-6.415 5.171 0 3.324 2.413 5.008 5.67 5.008zm1.356-3.215c-1.456 0-2.501-.667-2.501-1.947 0-1.312 1.101-1.957 2.768-2.187 1.034-.142 2.724-.382 3.291-.754v1.782c0 1.76-1.479 3.105-3.558 3.105zm11.935 2.897h4.736V6.877H140.3zm2.379-18.96c1.412 0 2.568-1.06 2.568-2.361 0-1.29-1.156-2.351-2.568-2.351-1.401 0-2.557 1.06-2.557 2.35 0 1.302 1.156 2.363 2.557 2.363zm10.886 9.251c.011-2.165 1.323-3.434 3.235-3.434 1.902 0 3.047 1.225 3.035 3.28v9.863h4.736V12.979c0-3.915-2.334-6.32-5.892-6.32-2.534 0-4.369 1.224-5.136 3.182h-.2V6.877h-4.514v16.795h4.736z"/><path d="M171.825 23.957c1.431 0 2.672-1.157 2.683-2.594-.011-1.416-1.252-2.573-2.683-2.573-1.475 0-2.694 1.157-2.682 2.573-.012 1.437 1.207 2.594 2.682 2.594zm14.349.043c4.572 0 7.445-2.594 7.668-6.41h-4.493c-.28 1.773-1.487 2.767-3.119 2.767-2.224 0-3.666-1.805-3.666-4.982 0-3.135 1.453-4.93 3.666-4.93 1.744 0 2.862 1.114 3.119 2.768h4.493c-.201-3.837-3.208-6.356-7.69-6.356-5.209 0-8.428 3.491-8.428 8.582 0 5.048 3.163 8.561 8.45 8.561zm18.474 0c5.209 0 8.45-3.448 8.45-8.56 0-5.146-3.241-8.583-8.45-8.583s-8.45 3.437-8.45 8.582c0 5.113 3.241 8.561 8.45 8.561zm.022-3.567c-2.403 0-3.632-2.13-3.632-5.026s1.229-5.037 3.632-5.037c2.359 0 3.588 2.14 3.588 5.037s-1.229 5.026-3.588 5.026zm11.524 3.243h4.762V13.71c0-1.838 1.207-3.059 2.794-3.059 1.565 0 2.616 1.038 2.616 2.67v10.355h4.616V13.537c0-1.719 1.017-2.886 2.75-2.886 1.52 0 2.66.919 2.66 2.767v10.258h4.751V12.51c0-3.6-2.214-5.653-5.41-5.653-2.515 0-4.471 1.243-5.176 3.146h-.178c-.548-1.924-2.303-3.146-4.661-3.146-2.314 0-4.069 1.19-4.784 3.146h-.202v-2.93h-4.538z" opacity=".5"/></g></svg>