<svg xmlns="http://www.w3.org/2000/svg" width="156" height="52" viewBox="0 0 156 52" fill="none"><g><path d="M143.577 0.000169H12.4299C11.9518 0.000169 11.4795 0.000169 11.0027 0.002769C10.6036 0.005369 10.2077 0.012922 9.80475 0.019279C8.92936 0.0295513 8.05604 0.106348 7.19236 0.249002C6.3299 0.394761 5.49446 0.669559 4.71428 1.0641C3.93507 1.46198 3.22307 1.97899 2.60413 2.59636C1.98194 3.212 1.4633 3.92359 1.06815 4.70378C0.671901 5.48241 0.397144 6.31679 0.253364 7.17809C0.108217 8.03831 0.0301122 8.90845 0.0197503 9.78069C0.00765242 10.1793 0.00637485 10.5792 0 10.9778V41.0264C0.00637485 41.43 0.00765242 41.821 0.0197503 42.2248C0.0301154 43.097 0.10822 43.9671 0.253364 44.8273C0.396747 45.6891 0.67152 46.524 1.06815 47.3029C1.46312 48.0805 1.98184 48.7893 2.60413 49.4015C3.22072 50.0216 3.93318 50.5389 4.71428 50.9338C5.49445 51.3294 6.3298 51.6058 7.19236 51.7538C8.05619 51.8953 8.92942 51.9722 9.80475 51.9837C10.2077 51.9925 10.6036 51.9976 11.0027 51.9976C11.4795 52.0002 11.9519 52.0002 12.4299 52.0002H143.577C144.046 52.0002 144.522 52.0002 144.99 51.9976C145.388 51.9976 145.795 51.9925 146.192 51.9837C147.066 51.9728 147.937 51.8959 148.799 51.7538C149.665 51.6048 150.503 51.3284 151.287 50.9338C152.067 50.5387 152.779 50.0214 153.395 49.4015C154.016 48.7869 154.536 48.0787 154.936 47.3029C155.329 46.5234 155.602 45.6886 155.743 44.8273C155.888 43.967 155.969 43.0971 155.985 42.2248C155.99 41.821 155.99 41.43 155.99 41.0264C156 40.5541 156 40.0844 156 39.6044V12.3971C156 11.9211 156 11.4488 155.99 10.9778C155.99 10.5792 155.99 10.1793 155.985 9.78064C155.969 8.90832 155.888 8.03838 155.743 7.17804C155.601 6.31724 155.329 5.48292 154.936 4.70373C154.131 3.13992 152.855 1.867 151.287 1.06398C150.503 0.670407 149.665 0.395682 148.799 0.248885C147.938 0.105603 147.066 0.0287791 146.192 0.019097C145.795 0.012753 145.388 0.005135 144.99 0.0026C144.522 0 144.046 0 143.577 0V0.000169Z" fill="#B1B8C7"/><path d="M11.1502 50.6972C10.7538 50.6972 10.3671 50.6922 9.9738 50.6834C9.15915 50.6729 8.34641 50.6025 7.54223 50.4728C6.79238 50.3446 6.06597 50.1061 5.38697 49.7652C4.7142 49.4271 4.10057 48.9838 3.56961 48.4523C3.03096 47.9271 2.58251 47.3179 2.24202 46.6488C1.89779 45.9755 1.65956 45.2537 1.53563 44.5087C1.4018 43.7081 1.32939 42.8987 1.31903 42.0872C1.31079 41.8149 1.29999 40.908 1.29999 40.908V11.0751C1.29999 11.0751 1.31149 10.1822 1.3191 9.91988C1.32902 9.10974 1.40101 8.30152 1.53444 7.50222C1.65859 6.75515 1.89701 6.0313 2.24143 5.35573C2.58066 4.68717 3.02662 4.0775 3.56202 3.55036C4.09683 3.01822 4.71242 2.57265 5.38633 2.22991C6.06377 1.89011 6.78881 1.65331 7.53714 1.52745C8.34396 1.39645 9.15953 1.32563 9.977 1.31557L11.1508 1.2998H144.843L146.031 1.31621C146.841 1.32576 147.649 1.39595 148.448 1.52618C149.204 1.65363 149.937 1.89208 150.622 2.23369C151.972 2.92441 153.071 4.0172 153.764 5.35888C154.103 6.02979 154.337 6.74774 154.46 7.48835C154.595 8.29421 154.67 9.10878 154.686 9.92556C154.69 10.2913 154.69 10.6842 154.69 11.0751C154.7 11.5594 154.7 12.0204 154.7 12.4851V39.5131C154.7 39.9823 154.7 40.4401 154.69 40.9017C154.69 41.3217 154.69 41.7064 154.685 42.1023C154.669 42.9045 154.595 43.7046 154.462 44.496C154.341 45.2464 154.104 45.9738 153.76 46.6527C153.417 47.3145 152.971 47.9184 152.439 48.4422C151.907 48.9766 151.292 49.4225 150.618 49.7627C149.935 50.1063 149.203 50.3456 148.448 50.4728C147.644 50.6032 146.831 50.6736 146.017 50.6834C145.636 50.6922 145.237 50.6972 144.849 50.6972L143.439 50.6998L11.1502 50.6972Z" fill="black"/><path d="M32.4885 26.9092C32.5027 25.813 32.7947 24.7382 33.3374 23.7847C33.88 22.8313 34.6557 22.0302 35.5923 21.456C34.9973 20.6087 34.2124 19.9114 33.2999 19.4194C32.3874 18.9275 31.3725 18.6545 30.3357 18.6222C28.124 18.3907 25.9799 19.9419 24.8529 19.9419C23.704 19.9419 21.9688 18.6452 20.1003 18.6835C18.8916 18.7224 17.7137 19.0729 16.6813 19.7008C15.6489 20.3287 14.7972 21.2125 14.2092 22.2662C11.662 26.664 13.5619 33.1271 16.0019 36.6819C17.2227 38.4226 18.6495 40.367 20.5163 40.298C22.3432 40.2225 23.0255 39.1364 25.2306 39.1364C27.4153 39.1364 28.0554 40.298 29.9602 40.2542C31.9205 40.2225 33.1556 38.5058 34.3335 36.7486C35.2106 35.5083 35.8856 34.1375 36.3334 32.687C35.1945 32.2067 34.2226 31.4026 33.5389 30.3752C32.8552 29.3477 32.4899 28.1423 32.4885 26.9092Z" fill="white"/><path d="M28.8906 16.2847C29.9594 15.0052 30.486 13.3606 30.3585 11.7002C28.7256 11.8712 27.2172 12.6495 26.1339 13.8799C25.6043 14.481 25.1986 15.1803 24.9401 15.9378C24.6817 16.6953 24.5755 17.4962 24.6276 18.2946C25.4443 18.303 26.2524 18.1265 26.9908 17.7783C27.7292 17.4302 28.3788 16.9195 28.8906 16.2847Z" fill="white"/><path d="M55.1475 35.282H48.9768L47.4949 39.6454H44.8812L50.726 23.502H53.4415L59.2863 39.6454H56.6281L55.1475 35.282ZM49.6159 33.2685H54.5071L52.0959 26.187H52.0284L49.6159 33.2685Z" fill="white"/><path d="M71.909 33.7609C71.909 37.4184 69.9459 39.7683 66.9834 39.7683C66.2329 39.8074 65.4866 39.6351 64.8298 39.2709C64.1731 38.9067 63.6324 38.3654 63.2698 37.7091H63.2137V43.5388H60.791V27.8753H63.1361V29.8329H63.1807C63.56 29.1797 64.1097 28.6413 64.7715 28.2749C65.4333 27.9085 66.1823 27.7278 66.9388 27.7522C69.9344 27.7522 71.909 30.1135 71.909 33.7609ZM69.4188 33.7609C69.4188 31.378 68.1839 29.8114 66.2997 29.8114C64.4487 29.8114 63.2036 31.411 63.2036 33.7609C63.2036 36.1324 64.4487 37.7205 66.2997 37.7205C68.1839 37.7205 69.4188 36.1654 69.4188 33.7609Z" fill="white"/><path d="M84.8998 33.7609C84.8998 37.4184 82.9367 39.7683 79.9742 39.7683C79.2237 39.8074 78.4774 39.635 77.8206 39.2709C77.1638 38.9067 76.6232 38.3654 76.2606 37.7091H76.2045V43.5388H73.7818V27.8753H76.1268V29.8329H76.1714C76.5507 29.1797 77.1005 28.6413 77.7623 28.2749C78.424 27.9085 79.173 27.7278 79.9296 27.7522C82.9252 27.7522 84.8998 30.1135 84.8998 33.7609ZM82.4096 33.7609C82.4096 31.378 81.1747 29.8113 79.2905 29.8113C77.4394 29.8113 76.1943 31.411 76.1943 33.7609C76.1943 36.1323 77.4394 37.7205 79.2905 37.7205C81.1747 37.7205 82.4096 36.1654 82.4096 33.7609H82.4096Z" fill="white"/><path d="M93.4855 35.147C93.665 36.7479 95.2246 37.799 97.3557 37.799C99.3978 37.799 100.867 36.7479 100.867 35.3044C100.867 34.0514 99.9808 33.3011 97.8828 32.7869L95.7847 32.2829C92.8121 31.5669 91.432 30.1806 91.432 27.931C91.432 25.1456 93.8662 23.2324 97.3226 23.2324C100.743 23.2324 103.088 25.1456 103.167 27.931H100.722C100.575 26.3199 99.2399 25.3475 97.2882 25.3475C95.3366 25.3475 94.0011 26.3314 94.0011 27.7634C94.0011 28.9047 94.8541 29.5763 96.9407 30.0904L98.7243 30.5271C102.046 31.3104 103.426 32.6409 103.426 35.0022C103.426 38.0224 101.013 39.914 97.1762 39.914C93.5861 39.914 91.1621 38.0669 91.0055 35.1469L93.4855 35.147Z" fill="white"/><path d="M108.654 25.0898V27.8752H110.899V29.7884H108.654V36.277C108.654 37.285 109.104 37.7547 110.09 37.7547C110.357 37.7501 110.623 37.7314 110.887 37.6988V39.6005C110.444 39.6832 109.993 39.7206 109.542 39.7123C107.152 39.7123 106.22 38.8172 106.22 36.5346V29.7884H104.504V27.8752H106.22V25.0898H108.654Z" fill="white"/><path d="M112.199 33.7607C112.199 30.0575 114.386 27.7305 117.796 27.7305C121.218 27.7305 123.395 30.0575 123.395 33.7607C123.395 37.4741 121.23 39.791 117.796 39.791C114.364 39.791 112.199 37.4741 112.199 33.7607ZM120.927 33.7607C120.927 31.2204 119.76 29.7211 117.796 29.7211C115.833 29.7211 114.667 31.2318 114.667 33.7607C114.667 36.3112 115.833 37.7991 117.796 37.7991C119.76 37.7991 120.927 36.3112 120.927 33.7607H120.927Z" fill="white"/><path d="M125.393 27.8752H127.704V29.8785H127.76C127.916 29.2528 128.284 28.6999 128.801 28.3127C129.318 27.9254 129.953 27.7274 130.599 27.752C130.878 27.7511 131.157 27.7813 131.429 27.8422V30.102C131.077 29.9946 130.709 29.9452 130.34 29.956C129.988 29.9417 129.638 30.0036 129.312 30.1374C128.986 30.2711 128.693 30.4736 128.454 30.7308C128.214 30.9881 128.033 31.294 127.922 31.6277C127.812 31.9614 127.776 32.3149 127.816 32.6639V39.645H125.393L125.393 27.8752Z" fill="white"/><path d="M142.599 36.1881C142.273 38.3247 140.186 39.791 137.517 39.791C134.083 39.791 131.952 37.497 131.952 33.8166C131.952 30.1248 134.095 27.7305 137.415 27.7305C140.68 27.7305 142.734 29.9674 142.734 33.536V34.3638H134.398V34.5098C134.359 34.9429 134.414 35.3793 134.557 35.7899C134.701 36.2005 134.93 36.5759 135.231 36.8912C135.531 37.2065 135.895 37.4545 136.299 37.6187C136.703 37.7829 137.137 37.8595 137.573 37.8435C138.145 37.897 138.72 37.7648 139.211 37.4665C139.702 37.1683 140.083 36.7199 140.298 36.1881L142.599 36.1881ZM134.409 32.6753H140.31C140.332 32.2858 140.272 31.8961 140.136 31.5305C140 31.1649 139.789 30.8314 139.517 30.5509C139.245 30.2704 138.918 30.049 138.556 29.9005C138.195 29.752 137.806 29.6797 137.415 29.6881C137.02 29.6857 136.629 29.7613 136.264 29.9105C135.899 30.0597 135.567 30.2794 135.288 30.5572C135.008 30.8349 134.787 31.1651 134.636 31.5286C134.485 31.8921 134.408 32.2819 134.409 32.6753V32.6753Z" fill="white"/><path d="M49.3122 11.3496C49.8201 11.3133 50.3298 11.3898 50.8045 11.5737C51.2792 11.7575 51.707 12.0441 52.0571 12.4129C52.4073 12.7816 52.671 13.2232 52.8293 13.7058C52.9875 14.1885 53.0364 14.7001 52.9724 15.2039C52.9724 17.682 51.6293 19.1065 49.3122 19.1065H46.5025V11.3496H49.3122ZM47.7107 18.0095H49.1773C49.5402 18.0312 49.9034 17.9718 50.2405 17.8358C50.5775 17.6998 50.8799 17.4906 51.1256 17.2233C51.3714 16.9561 51.5542 16.6376 51.661 16.291C51.7677 15.9444 51.7955 15.5784 51.7425 15.2197C51.7917 14.8624 51.761 14.4987 51.6526 14.1547C51.5443 13.8106 51.361 13.4947 51.1158 13.2296C50.8706 12.9645 50.5697 12.7567 50.2345 12.6212C49.8994 12.4857 49.5383 12.4258 49.1773 12.4458H47.7107V18.0095Z" fill="white"/><path d="M54.3371 16.1769C54.3002 15.7922 54.3444 15.4041 54.4667 15.0374C54.589 14.6707 54.7869 14.3336 55.0475 14.0476C55.3082 13.7616 55.6259 13.5331 55.9803 13.3768C56.3347 13.2204 56.7179 13.1396 57.1055 13.1396C57.493 13.1396 57.8763 13.2204 58.2307 13.3768C58.5851 13.5331 58.9028 13.7616 59.1634 14.0476C59.4241 14.3336 59.6219 14.6707 59.7443 15.0374C59.8666 15.4041 59.9107 15.7922 59.8738 16.1769C59.9114 16.562 59.8678 16.9507 59.7458 17.318C59.6238 17.6853 59.4261 18.023 59.1654 18.3096C58.9046 18.5961 58.5867 18.8251 58.2319 18.9818C57.8772 19.1385 57.4935 19.2194 57.1055 19.2194C56.7175 19.2194 56.3338 19.1385 55.979 18.9818C55.6243 18.8251 55.3063 18.5961 55.0456 18.3096C54.7849 18.023 54.5872 17.6853 54.4651 17.318C54.3431 16.9507 54.2995 16.562 54.3371 16.1769ZM58.6822 16.1769C58.6822 14.908 58.1106 14.166 57.1074 14.166C56.1004 14.166 55.5339 14.908 55.5339 16.177C55.5339 17.456 56.1004 18.1923 57.1074 18.1923C58.1106 18.1923 58.6822 17.4509 58.6822 16.1769H58.6822Z" fill="white"/><path d="M67.2335 19.1067H66.0317L64.8184 14.7954H64.7268L63.5186 19.1067H62.3282L60.7101 13.2529H61.8852L62.9368 17.7197H63.0234L64.2303 13.2529H65.3417L66.5486 17.7197H66.6402L67.6867 13.2529H68.8452L67.2335 19.1067Z" fill="white"/><path d="M70.2062 13.2525H71.3214V14.1825H71.408C71.5548 13.8485 71.8025 13.5685 72.1166 13.3815C72.4306 13.1946 72.7952 13.11 73.1598 13.1396C73.4454 13.1181 73.7322 13.1611 73.9989 13.2652C74.2656 13.3693 74.5054 13.532 74.7006 13.7411C74.8957 13.9502 75.0412 14.2004 75.1262 14.4731C75.2112 14.7459 75.2335 15.0342 75.1916 15.3168V19.1063H74.0331V15.6069C74.0331 14.6662 73.6232 14.1984 72.7664 14.1984C72.5724 14.1893 72.3789 14.2223 72.1989 14.2948C72.0189 14.3674 71.8568 14.4779 71.7237 14.6188C71.5905 14.7597 71.4895 14.9277 71.4276 15.1112C71.3656 15.2946 71.3441 15.4893 71.3647 15.6818V19.1064H70.2062L70.2062 13.2525Z" fill="white"/><path d="M77.0376 10.9678H78.1961V19.1067H77.0376V10.9678Z" fill="white"/><path d="M79.8066 16.177C79.7698 15.7923 79.8139 15.4042 79.9363 15.0375C80.0587 14.6708 80.2565 14.3336 80.5172 14.0476C80.7779 13.7616 81.0956 13.5331 81.45 13.3768C81.8045 13.2204 82.1877 13.1396 82.5753 13.1396C82.9629 13.1396 83.3461 13.2204 83.7006 13.3768C84.055 13.5331 84.3727 13.7616 84.6334 14.0476C84.8941 14.3336 85.092 14.6708 85.2143 15.0375C85.3367 15.4042 85.3808 15.7923 85.344 16.177C85.3815 16.5622 85.3379 16.9508 85.2158 17.3181C85.0938 17.6854 84.896 18.0232 84.6353 18.3097C84.3745 18.5962 84.0566 18.8252 83.7018 18.9819C83.347 19.1386 82.9633 19.2195 82.5753 19.2195C82.1873 19.2195 81.8036 19.1386 81.4488 18.9819C81.094 18.8252 80.7761 18.5962 80.5153 18.3097C80.2546 18.0232 80.0568 17.6854 79.9348 17.3181C79.8127 16.9508 79.7691 16.5622 79.8066 16.177ZM84.1517 16.177C84.1517 14.9082 83.5801 14.1661 82.5769 14.1661C81.5699 14.1661 81.0034 14.9082 81.0034 16.1771C81.0034 17.4561 81.5699 18.1924 82.5769 18.1924C83.5801 18.1924 84.1517 17.451 84.1517 16.177H84.1517Z" fill="white"/><path d="M86.5637 17.451C86.5637 16.3973 87.3504 15.7898 88.747 15.7035L90.3371 15.6121V15.1068C90.3371 14.4885 89.9272 14.1394 89.1353 14.1394C88.4886 14.1394 88.0405 14.3762 87.9119 14.79H86.7903C86.9087 13.7846 87.8571 13.1396 89.1888 13.1396C90.6605 13.1396 91.4905 13.8702 91.4905 15.1068V19.1064H90.3753V18.2838H90.2836C90.0976 18.5789 89.8363 18.8194 89.5266 18.9809C89.2168 19.1424 88.8696 19.219 88.5204 19.2029C88.274 19.2284 88.0249 19.2022 87.7893 19.1259C87.5536 19.0496 87.3366 18.9249 87.1522 18.7599C86.9679 18.5948 86.8203 18.393 86.7189 18.1676C86.6175 17.9422 86.5646 17.698 86.5637 17.451ZM90.3371 16.9508V16.4614L88.9036 16.5528C88.0952 16.6067 87.7285 16.8809 87.7285 17.397C87.7285 17.9239 88.1868 18.2304 88.8171 18.2304C89.0017 18.2491 89.1883 18.2305 89.3656 18.1758C89.5429 18.1211 89.7073 18.0313 89.8491 17.9119C89.991 17.7926 90.1072 17.6459 90.1911 17.4808C90.2749 17.3157 90.3246 17.1354 90.3371 16.9508Z" fill="white"/><path d="M93.0131 16.1773C93.0131 14.3276 93.9666 13.1558 95.4498 13.1558C95.8166 13.139 96.1807 13.2266 96.4995 13.4085C96.8183 13.5903 97.0786 13.8589 97.2499 14.1828H97.3365V10.9678H98.495V19.1067H97.3849V18.1819H97.2932C97.1086 18.5036 96.8393 18.7689 96.5143 18.9489C96.1894 19.1289 95.8212 19.2169 95.4498 19.2032C93.9564 19.2033 93.0131 18.0315 93.0131 16.1773ZM94.2098 16.1773C94.2098 17.4189 94.7967 18.166 95.7783 18.166C96.7547 18.166 97.3582 17.4081 97.3582 16.1824C97.3582 14.9624 96.7484 14.1937 95.7783 14.1937C94.803 14.1937 94.2098 14.9459 94.2098 16.1773H94.2098Z" fill="white"/><path d="M103.288 16.1769C103.251 15.7922 103.295 15.4041 103.418 15.0374C103.54 14.6707 103.738 14.3336 103.999 14.0476C104.259 13.7616 104.577 13.5331 104.931 13.3768C105.286 13.2204 105.669 13.1396 106.056 13.1396C106.444 13.1396 106.827 13.2204 107.182 13.3768C107.536 13.5331 107.854 13.7616 108.114 14.0476C108.375 14.3336 108.573 14.6707 108.695 15.0374C108.818 15.4041 108.862 15.7922 108.825 16.1769C108.862 16.562 108.819 16.9507 108.697 17.318C108.575 17.6853 108.377 18.023 108.116 18.3096C107.856 18.5961 107.538 18.8251 107.183 18.9818C106.828 19.1385 106.444 19.2194 106.056 19.2194C105.668 19.2194 105.285 19.1385 104.93 18.9818C104.575 18.8251 104.257 18.5961 103.997 18.3096C103.736 18.023 103.538 17.6853 103.416 17.318C103.294 16.9507 103.251 16.562 103.288 16.1769ZM107.633 16.1769C107.633 14.908 107.062 14.166 106.058 14.166C105.051 14.166 104.485 14.908 104.485 16.177C104.485 17.456 105.051 18.1923 106.058 18.1923C107.062 18.1923 107.633 17.4509 107.633 16.1769Z" fill="white"/><path d="M110.379 13.2525H111.495V14.1825H111.581C111.728 13.8485 111.976 13.5685 112.29 13.3815C112.604 13.1946 112.968 13.11 113.333 13.1396C113.618 13.1181 113.905 13.1611 114.172 13.2652C114.439 13.3693 114.679 13.532 114.874 13.7411C115.069 13.9502 115.214 14.2004 115.299 14.4731C115.384 14.7459 115.407 15.0342 115.365 15.3168V19.1063H114.206V15.6069C114.206 14.6662 113.796 14.1984 112.939 14.1984C112.746 14.1893 112.552 14.2223 112.372 14.2948C112.192 14.3674 112.03 14.4779 111.897 14.6188C111.764 14.7597 111.663 14.9277 111.601 15.1112C111.539 15.2946 111.517 15.4893 111.538 15.6818V19.1064H110.379V13.2525Z" fill="white"/><path d="M121.911 11.7959V13.28H123.183V14.2531H121.911V17.2631C121.911 17.8763 122.164 18.1448 122.741 18.1448C122.889 18.1444 123.036 18.1354 123.183 18.1182V19.0805C122.975 19.1176 122.764 19.1373 122.553 19.1395C121.264 19.1395 120.751 18.6875 120.751 17.5589V14.253H119.819V13.2799H120.751V11.7959H121.911Z" fill="white"/><path d="M124.765 10.9678H125.914V14.1937H126.005C126.159 13.8565 126.414 13.575 126.734 13.3873C127.054 13.1997 127.425 13.1151 127.795 13.145C128.079 13.1296 128.363 13.1769 128.627 13.2836C128.891 13.3902 129.128 13.5536 129.321 13.762C129.514 13.9705 129.659 14.2188 129.744 14.4894C129.83 14.76 129.855 15.0461 129.817 15.3273V19.1067H128.657V15.6123C128.657 14.6773 128.221 14.2038 127.402 14.2038C127.203 14.1875 127.003 14.2148 126.815 14.2838C126.628 14.3527 126.458 14.4617 126.317 14.6031C126.176 14.7444 126.068 14.9148 126 15.1021C125.932 15.2895 125.906 15.4894 125.924 15.6879V19.1067H124.765L124.765 10.9678Z" fill="white"/><path d="M136.572 17.526C136.415 18.061 136.074 18.5238 135.609 18.8333C135.144 19.1429 134.584 19.2796 134.028 19.2195C133.642 19.2297 133.257 19.1558 132.902 19.003C132.547 18.8503 132.229 18.6222 131.971 18.3347C131.713 18.0473 131.521 17.7072 131.408 17.3383C131.295 16.9693 131.264 16.5802 131.317 16.198C131.265 15.8147 131.297 15.4248 131.41 15.0547C131.522 14.6846 131.714 14.343 131.97 14.053C132.227 13.763 132.543 13.5314 132.897 13.3739C133.252 13.2163 133.636 13.1364 134.023 13.1397C135.657 13.1397 136.642 14.2525 136.642 16.0907V16.4939H132.497V16.5586C132.479 16.7734 132.506 16.9897 132.576 17.1934C132.647 17.3972 132.759 17.584 132.907 17.7419C133.054 17.8998 133.233 18.0253 133.431 18.1103C133.63 18.1953 133.844 18.238 134.06 18.2356C134.337 18.2688 134.618 18.219 134.867 18.0926C135.116 17.9663 135.321 17.769 135.457 17.5259L136.572 17.526ZM132.497 15.6395H135.462C135.477 15.443 135.45 15.2456 135.383 15.0601C135.317 14.8746 135.212 14.705 135.076 14.5621C134.94 14.4193 134.776 14.3065 134.593 14.2309C134.411 14.1552 134.214 14.1185 134.017 14.123C133.817 14.1205 133.618 14.158 133.432 14.2333C133.247 14.3087 133.078 14.4203 132.936 14.5616C132.795 14.7029 132.683 14.8711 132.607 15.0562C132.532 15.2413 132.494 15.4396 132.497 15.6395H132.497Z" fill="white"/></g><defs><clipPath id="clip0"><rect width="156" height="52" fill="white"/></clipPath></defs></svg>