<svg xmlns="http://www.w3.org/2000/svg" width="24" height="24" viewBox="0 0 24 24" fill="none"><g clip-path="url(#clip0)"><path d="M2.84606 5.88686C2.87588 5.59224 2.76353 5.30105 2.54354 5.10276L0.302643 2.40325V2H7.26063L12.6388 13.795L17.3671 2H24.0001V2.40325L22.0842 4.24026C21.919 4.36617 21.837 4.57311 21.8713 4.77793V18.2755C21.837 18.4803 21.919 18.6873 22.0842 18.8132L23.9553 20.6502V21.0534H14.5435V20.6502L16.4819 18.7684C16.6724 18.5779 16.6724 18.5219 16.6724 18.2307V7.32062L11.283 21.0086H10.5547L4.28023 7.32062V16.4945C4.22792 16.8802 4.35602 17.2685 4.62757 17.5474L7.14858 20.6054V21.0086H0.00012207V20.6054L2.52113 17.5474C2.79071 17.268 2.91134 16.8772 2.84606 16.4945V5.88686Z" fill="#12100E"/></g><defs><clipPath id="clip0"><rect width="24" height="24" fill="white"/></clipPath></defs></svg>