<svg xmlns="http://www.w3.org/2000/svg" width="24" height="24" viewBox="0 0 24 24" fill="none"><path d="M24 12C24 9.62663 23.2962 7.30655 21.9776 5.33316C20.6591 3.35977 18.7849 1.8217 16.5922 0.913451C14.3995 0.00519943 11.9867 -0.232441 9.65892 0.230582C7.33115 0.693605 5.19295 1.83649 3.51472 3.51472C1.83649 5.19295 0.693605 7.33115 0.230582 9.65892C-0.232441 11.9867 0.00519943 14.3995 0.913451 16.5922C1.8217 18.7849 3.35977 20.6591 5.33316 21.9776C7.30655 23.2962 9.62663 24 12 24C12.021 24 12.041 24 12.062 24C12.083 24 12.104 24 12.125 24C15.2734 23.9966 18.2918 22.7443 20.5181 20.5181C22.7443 18.2918 23.9966 15.2734 24 12.125C24 12.104 24 12.083 24 12.062C24 12.041 24 12.021 24 12ZM22 12C21.9997 12.8898 21.8789 13.7756 21.641 14.633C21.622 14.702 21.5884 14.7661 21.5425 14.8211C21.4966 14.876 21.4394 14.9204 21.3748 14.9513C21.3103 14.9822 21.2398 14.9989 21.1683 15.0002C21.0967 15.0015 21.0257 14.9875 20.96 14.959C20.3425 14.6917 19.8156 14.2513 19.443 13.691L17.225 10.363C16.9967 10.0206 16.6874 9.7399 16.3245 9.54574C15.9617 9.35158 15.5565 9.25 15.145 9.25001H14.712C13.9827 9.25001 13.2832 8.96027 12.7675 8.44455C12.2517 7.92882 11.962 7.22935 11.962 6.50001C11.962 5.77066 12.2517 5.07119 12.7675 4.55546C13.2832 4.03974 13.9827 3.75001 14.712 3.75001H17.484C17.5875 3.75001 17.6885 3.78216 17.773 3.84201C19.0788 4.76451 20.1442 5.98685 20.8797 7.40639C21.6152 8.82593 21.9994 10.4012 22 12ZM2.17901 10.155C2.20209 10.0419 2.2636 9.94027 2.3531 9.86736C2.4426 9.79445 2.55457 9.75475 2.67001 9.75501H7.00701C7.46683 9.75371 7.92235 9.84364 8.34718 10.0196C8.77202 10.1955 9.15773 10.454 9.48201 10.78L10.6 11.9C11.231 12.5314 11.597 13.38 11.623 14.2722C11.649 15.1645 11.3332 16.033 10.74 16.7L9.38101 18.229C8.97415 18.687 8.74961 19.2784 8.75001 19.891V20.718C8.74996 20.801 8.72926 20.8827 8.68976 20.9557C8.65026 21.0287 8.59321 21.0907 8.52376 21.1361C8.4543 21.1816 8.37463 21.209 8.29192 21.216C8.20922 21.2229 8.12608 21.2092 8.05001 21.176C6.25563 20.4045 4.72648 19.1244 3.65133 17.4937C2.57618 15.863 2.00212 13.9532 2.00001 12C2.00103 11.3807 2.06097 10.7629 2.17901 10.155Z" fill="currentColor"/></svg>