<svg xmlns="http://www.w3.org/2000/svg" width="156" height="52" viewBox="0 0 156 52" fill="none"><g><path d="M143.577 0.000169H12.4299C11.9518 0.000169 11.4795 0.000169 11.0027 0.002769C10.6036 0.005369 10.2077 0.012922 9.80475 0.019279C8.92936 0.0295513 8.05604 0.106348 7.19236 0.249002C6.3299 0.394761 5.49446 0.669559 4.71428 1.0641C3.93507 1.46198 3.22307 1.97899 2.60413 2.59636C1.98194 3.212 1.4633 3.92359 1.06815 4.70378C0.671901 5.48241 0.397144 6.31679 0.253364 7.17809C0.108217 8.03831 0.0301122 8.90845 0.0197503 9.78069C0.00765242 10.1793 0.00637485 10.5792 0 10.9778V41.0264C0.00637485 41.43 0.00765242 41.821 0.0197503 42.2248C0.0301154 43.097 0.10822 43.9671 0.253364 44.8273C0.396747 45.6891 0.67152 46.524 1.06815 47.3029C1.46312 48.0805 1.98184 48.7893 2.60413 49.4015C3.22072 50.0216 3.93318 50.5389 4.71428 50.9338C5.49445 51.3294 6.3298 51.6058 7.19236 51.7538C8.05619 51.8953 8.92942 51.9722 9.80475 51.9837C10.2077 51.9925 10.6036 51.9976 11.0027 51.9976C11.4795 52.0002 11.9519 52.0002 12.4299 52.0002H143.577C144.046 52.0002 144.522 52.0002 144.99 51.9976C145.388 51.9976 145.795 51.9925 146.192 51.9837C147.066 51.9728 147.937 51.8959 148.799 51.7538C149.665 51.6048 150.503 51.3284 151.287 50.9338C152.067 50.5387 152.779 50.0214 153.395 49.4015C154.016 48.7869 154.536 48.0787 154.936 47.3029C155.329 46.5234 155.602 45.6886 155.743 44.8273C155.888 43.967 155.969 43.0971 155.985 42.2248C155.99 41.821 155.99 41.43 155.99 41.0264C156 40.5541 156 40.0844 156 39.6044V12.3971C156 11.9211 156 11.4488 155.99 10.9778C155.99 10.5792 155.99 10.1793 155.985 9.78064C155.969 8.90832 155.888 8.03838 155.743 7.17804C155.601 6.31724 155.329 5.48292 154.936 4.70373C154.131 3.13992 152.855 1.867 151.287 1.06398C150.503 0.670407 149.665 0.395682 148.799 0.248885C147.938 0.105603 147.066 0.0287791 146.192 0.019097C145.795 0.012753 145.388 0.005135 144.99 0.0026C144.522 0 144.046 0 143.577 0V0.000169Z" fill="#B1B8C7"/><path d="M11.1502 50.6972C10.7538 50.6972 10.3671 50.6922 9.9738 50.6834C9.15915 50.6729 8.34641 50.6025 7.54223 50.4728C6.79238 50.3446 6.06597 50.1061 5.38697 49.7652C4.7142 49.4271 4.10057 48.9838 3.56961 48.4523C3.03096 47.9271 2.58251 47.3179 2.24202 46.6488C1.89779 45.9755 1.65956 45.2537 1.53563 44.5087C1.4018 43.7081 1.32939 42.8987 1.31903 42.0872C1.31079 41.8149 1.29999 40.908 1.29999 40.908V11.0751C1.29999 11.0751 1.31149 10.1822 1.3191 9.91988C1.32902 9.10974 1.40101 8.30152 1.53444 7.50222C1.65859 6.75515 1.89701 6.0313 2.24143 5.35573C2.58066 4.68717 3.02662 4.0775 3.56202 3.55036C4.09683 3.01822 4.71242 2.57265 5.38633 2.22991C6.06377 1.89011 6.78881 1.65331 7.53714 1.52745C8.34396 1.39645 9.15953 1.32563 9.977 1.31557L11.1508 1.2998H144.843L146.031 1.31621C146.841 1.32576 147.649 1.39595 148.448 1.52618C149.204 1.65363 149.937 1.89208 150.622 2.23369C151.972 2.92441 153.071 4.0172 153.764 5.35888C154.103 6.02979 154.337 6.74774 154.46 7.48835C154.595 8.29421 154.67 9.10878 154.686 9.92556C154.69 10.2913 154.69 10.6842 154.69 11.0751C154.7 11.5594 154.7 12.0204 154.7 12.4851V39.5131C154.7 39.9823 154.7 40.4401 154.69 40.9017C154.69 41.3217 154.69 41.7064 154.685 42.1023C154.669 42.9045 154.595 43.7046 154.462 44.496C154.341 45.2464 154.104 45.9738 153.76 46.6527C153.417 47.3145 152.971 47.9184 152.439 48.4422C151.907 48.9766 151.292 49.4225 150.618 49.7627C149.935 50.1063 149.203 50.3456 148.448 50.4728C147.644 50.6032 146.831 50.6736 146.017 50.6834C145.636 50.6922 145.237 50.6972 144.849 50.6972L143.439 50.6998L11.1502 50.6972Z" fill="black"/><path d="M55.4918 14.5595C55.4918 15.5995 55.2311 16.5095 54.5792 17.1595C53.797 17.9395 52.8845 18.3295 51.7112 18.3295C50.5379 18.3295 49.6254 17.9395 48.8432 17.1595C48.061 16.3795 47.6699 15.4695 47.6699 14.2995C47.6699 13.1295 48.061 12.2195 48.8432 11.4395C49.6254 10.6595 50.5379 10.2695 51.7112 10.2695C52.2327 10.2695 52.7541 10.3995 53.2756 10.6595C53.797 10.9195 54.1881 11.1795 54.4489 11.5695L53.797 12.2195C53.2756 11.5695 52.6238 11.3095 51.7112 11.3095C50.929 11.3095 50.1468 11.5695 49.6254 12.2195C48.9735 12.7395 48.7128 13.5195 48.7128 14.4295C48.7128 15.3395 48.9735 16.1195 49.6254 16.6395C50.2772 17.1595 50.929 17.5495 51.7112 17.5495C52.6238 17.5495 53.2756 17.2895 53.9274 16.6395C54.3185 16.2495 54.5792 15.7295 54.5792 15.0795H51.7112V14.1695H55.4918C55.4918 14.1695 55.4918 14.4295 55.4918 14.5595Z" fill="white" stroke="white" stroke-width="0.2" stroke-miterlimit="10"/><path d="M61.4888 11.3094H57.9689V13.7794H61.2281V14.6894H57.9689V17.1594H61.4888V18.1994H56.926V10.3994H61.4888V11.3094Z" fill="white" stroke="white" stroke-width="0.2" stroke-miterlimit="10"/><path d="M65.7904 18.1994H64.7475V11.3094H62.5313V10.3994H68.0066V11.3094H65.7904V18.1994Z" fill="white" stroke="white" stroke-width="0.2" stroke-miterlimit="10"/><path d="M71.7874 18.1994V10.3994H72.8303V18.1994H71.7874Z" fill="white" stroke="white" stroke-width="0.2" stroke-miterlimit="10"/><path d="M77.2628 18.1994H76.2199V11.3094H74.0037V10.3994H79.3487V11.3094H77.1325V18.1994H77.2628Z" fill="white" stroke="white" stroke-width="0.2" stroke-miterlimit="10"/><path d="M89.6474 17.1595C88.8652 17.9395 87.9527 18.3295 86.7794 18.3295C85.6061 18.3295 84.6936 17.9395 83.9114 17.1595C83.1292 16.3795 82.7381 15.4695 82.7381 14.2995C82.7381 13.1295 83.1292 12.2195 83.9114 11.4395C84.6936 10.6595 85.6061 10.2695 86.7794 10.2695C87.9527 10.2695 88.8652 10.6595 89.6474 11.4395C90.4296 12.2195 90.8207 13.1295 90.8207 14.2995C90.8207 15.4695 90.4296 16.3795 89.6474 17.1595ZM84.6936 16.5095C85.215 17.0295 85.9972 17.4195 86.7794 17.4195C87.5616 17.4195 88.3438 17.1595 88.8652 16.5095C89.3867 15.9895 89.7778 15.2095 89.7778 14.2995C89.7778 13.3895 89.5171 12.6095 88.8652 12.0895C88.3438 11.5695 87.5616 11.1795 86.7794 11.1795C85.9972 11.1795 85.215 11.4395 84.6936 12.0895C84.1721 12.6095 83.781 13.3895 83.781 14.2995C83.781 15.2095 84.0417 15.9895 84.6936 16.5095Z" fill="white" stroke="white" stroke-width="0.2" stroke-miterlimit="10"/><path d="M92.2547 18.1994V10.3994H93.428L97.2086 16.5094V14.9494V10.3994H98.2515V18.1994H97.2086L93.1673 11.8294V13.3894V18.1994H92.2547Z" fill="white" stroke="white" stroke-width="0.2" stroke-miterlimit="10"/><path d="M77.0955 29.1716C74.4142 29.1716 72.2915 31.1331 72.2915 33.8575C72.2915 36.4729 74.4142 38.5434 77.0955 38.5434C79.7767 38.5434 81.8994 36.5819 81.8994 33.8575C81.8994 31.0242 79.7767 29.1716 77.0955 29.1716ZM77.0955 36.5819C75.6431 36.5819 74.4142 35.3831 74.4142 33.7485C74.4142 32.1139 75.6431 30.9152 77.0955 30.9152C78.5478 30.9152 79.7767 32.0049 79.7767 33.7485C79.7767 35.3831 78.5478 36.5819 77.0955 36.5819ZM66.7056 29.1716C64.0243 29.1716 61.9016 31.1331 61.9016 33.8575C61.9016 36.4729 64.0243 38.5434 66.7056 38.5434C69.3868 38.5434 71.5095 36.5819 71.5095 33.8575C71.5095 31.0242 69.3868 29.1716 66.7056 29.1716ZM66.7056 36.5819C65.2532 36.5819 64.0243 35.3831 64.0243 33.7485C64.0243 32.1139 65.2532 30.9152 66.7056 30.9152C68.1579 30.9152 69.3868 32.0049 69.3868 33.7485C69.3868 35.3831 68.1579 36.5819 66.7056 36.5819ZM54.3047 30.5883V32.5498H59.1087C58.9969 33.6396 58.5501 34.5113 57.9915 35.0562C57.3211 35.7101 56.204 36.4729 54.3047 36.4729C51.2883 36.4729 49.0539 34.1844 49.0539 31.2421C49.0539 28.2998 51.4 26.0113 54.3047 26.0113C55.8688 26.0113 57.0977 26.6652 57.9915 27.428L59.4438 26.0113C58.2149 24.9216 56.6508 24.0498 54.4164 24.0498C50.3945 24.0498 46.9312 27.319 46.9312 31.2421C46.9312 35.1652 50.3945 38.4344 54.4164 38.4344C56.6508 38.4344 58.2149 37.7806 59.5555 36.3639C60.8962 35.0562 61.343 33.2037 61.343 31.787C61.343 31.3511 61.343 30.9152 61.2313 30.5883H54.3047ZM105.025 32.1139C104.578 31.0242 103.461 29.1716 101.003 29.1716C98.5456 29.1716 96.5346 31.0242 96.5346 33.8575C96.5346 36.4729 98.5456 38.5434 101.227 38.5434C103.35 38.5434 104.69 37.2357 105.137 36.4729L103.573 35.3831C103.014 36.146 102.344 36.6908 101.227 36.6908C100.11 36.6908 99.4393 36.2549 98.8807 35.2742L105.249 32.6588L105.025 32.1139ZM98.5456 33.6396C98.5456 31.896 99.9979 30.9152 101.003 30.9152C101.785 30.9152 102.567 31.3511 102.791 31.896L98.5456 33.6396ZM93.2948 38.1075H95.4174V24.4857H93.2948V38.1075ZM89.9432 30.1524C89.3846 29.6075 88.4908 29.0626 87.3737 29.0626C85.0275 29.0626 82.7932 31.1331 82.7932 33.7485C82.7932 36.3639 84.9158 38.3254 87.3737 38.3254C88.4908 38.3254 89.3846 37.7806 89.8315 37.2357H89.9432V37.8896C89.9432 39.6331 88.9377 40.6139 87.3737 40.6139C86.1447 40.6139 85.251 39.7421 85.0275 38.9793L83.24 39.7421C83.7986 40.9408 85.1393 42.4665 87.4854 42.4665C89.9432 42.4665 91.9541 41.0498 91.9541 37.6716V29.3895H89.9432V30.1524ZM87.4854 36.5819C86.033 36.5819 84.8041 35.3831 84.8041 33.7485C84.8041 32.1139 86.033 30.9152 87.4854 30.9152C88.9377 30.9152 90.0549 32.1139 90.0549 33.7485C90.0549 35.3831 88.9377 36.5819 87.4854 36.5819ZM114.745 24.4857H109.718V38.1075H111.84V32.9857H114.745C117.091 32.9857 119.325 31.3511 119.325 28.7357C119.325 26.1203 117.091 24.4857 114.745 24.4857ZM114.857 31.0242H111.84V26.3383H114.857C116.421 26.3383 117.314 27.646 117.314 28.6267C117.203 29.8254 116.309 31.0242 114.857 31.0242ZM127.704 29.0626C126.14 29.0626 124.576 29.7165 124.018 31.1331L125.917 31.896C126.364 31.1331 127.034 30.9152 127.816 30.9152C128.933 30.9152 129.939 31.569 130.05 32.6588V32.7678C129.715 32.5498 128.822 32.2229 127.928 32.2229C125.917 32.2229 123.906 33.3126 123.906 35.2742C123.906 37.1267 125.582 38.3254 127.369 38.3254C128.822 38.3254 129.492 37.6716 130.05 37.0178H130.162V38.1075H132.173V32.8767C131.95 30.4793 130.05 29.0626 127.704 29.0626ZM127.481 36.5819C126.811 36.5819 125.805 36.2549 125.805 35.3831C125.805 34.2934 127.034 33.9665 128.039 33.9665C128.933 33.9665 129.38 34.1844 129.939 34.4024C129.715 35.7101 128.598 36.5819 127.481 36.5819ZM139.211 29.3895L136.865 35.2742H136.754L134.296 29.3895H132.061L135.748 37.6716L133.625 42.2485H135.748L141.446 29.3895H139.211ZM120.443 38.1075H122.565V24.4857H120.443V38.1075Z" fill="white"/><path d="M14.8068 13.3359C14.5027 13.6392 14.3 14.1446 14.3 14.7511V37.0909C14.3 37.6974 14.5027 38.2028 14.8068 38.5061L14.9082 38.6071L27.4779 26.0726V25.9715V25.8705L14.8068 13.3359Z" fill="url(#paint0_linear)"/><path d="M31.6347 30.3188L27.4785 26.1743V25.9721V25.871L31.6347 21.7266L31.736 21.8276L36.7031 24.658C38.1222 25.4667 38.1222 26.7808 36.7031 27.5895L31.6347 30.3188Z" fill="url(#paint1_linear)"/><path d="M31.7355 30.2172L27.478 25.9717L14.8069 38.6073C15.3138 39.1127 16.0233 39.1127 16.9357 38.7084L31.7355 30.2172Z" fill="url(#paint2_linear)"/><path d="M31.7355 21.7262L16.9357 13.3362C16.0233 12.8308 15.3138 12.9319 14.8069 13.4373L27.478 25.9718L31.7355 21.7262Z" fill="url(#paint3_linear)"/><path opacity="0.2" d="M31.6342 30.1162L16.9357 38.4052C16.1248 38.9106 15.4152 38.8095 14.9083 38.4052L14.807 38.5063L14.9083 38.6073C15.4152 39.0117 16.1248 39.1128 16.9357 38.6073L31.6342 30.1162Z" fill="black"/><path opacity="0.12" d="M14.8071 38.4054C14.503 38.1022 14.4017 37.5967 14.4017 36.9902V37.0913C14.4017 37.6978 14.6044 38.2033 14.9085 38.5065V38.4054H14.8071Z" fill="black"/><path opacity="0.12" d="M36.7025 27.2858L31.6341 30.1162L31.7354 30.2172L36.7025 27.3869C37.4121 26.9825 37.7162 26.4771 37.7162 25.9717C37.7162 26.4771 37.3107 26.8814 36.7025 27.2858Z" fill="black"/><path opacity="0.25" d="M16.9358 13.4371L36.7027 24.6575C37.3109 25.0618 37.7164 25.4662 37.7164 25.9716C37.7164 25.4662 37.4123 24.9608 36.7027 24.5564L16.9358 13.336C15.5167 12.5273 14.4016 13.2349 14.4016 14.8523V14.9534C14.4016 13.336 15.5167 12.6284 16.9358 13.4371Z" fill="white"/></g><defs><linearGradient id="paint0_linear" x1="26.3625" y1="14.5588" x2="9.39816" y2="31.5708" gradientUnits="userSpaceOnUse"><stop stop-color="#00A0FF"/><stop offset="0.00657445" stop-color="#00A1FF"/><stop offset="0.2601" stop-color="#00BEFF"/><stop offset="0.5122" stop-color="#00D2FF"/><stop offset="0.7604" stop-color="#00DFFF"/><stop offset="1" stop-color="#00E3FF"/></linearGradient><linearGradient id="paint1_linear" x1="38.5626" y1="25.9735" x2="14.0345" y2="25.9735" gradientUnits="userSpaceOnUse"><stop stop-color="#FFE000"/><stop offset="0.4087" stop-color="#FFBD00"/><stop offset="0.7754" stop-color="#FFA500"/><stop offset="1" stop-color="#FF9C00"/></linearGradient><linearGradient id="paint2_linear" x1="29.4314" y1="28.2927" x2="6.42626" y2="51.3624" gradientUnits="userSpaceOnUse"><stop stop-color="#FF3A44"/><stop offset="1" stop-color="#C31162"/></linearGradient><linearGradient id="paint3_linear" x1="11.6618" y1="5.93295" x2="21.9346" y2="16.2345" gradientUnits="userSpaceOnUse"><stop stop-color="#32A071"/><stop offset="0.0685" stop-color="#2DA771"/><stop offset="0.4762" stop-color="#15CF74"/><stop offset="0.8009" stop-color="#06E775"/><stop offset="1" stop-color="#00F076"/></linearGradient><clipPath id="clip0"><rect width="156" height="52" fill="white"/></clipPath></defs></svg>